<svg width="31" height="31" viewBox="0 0 31 31" fill="none" xmlns="http://www.w3.org/2000/svg">
<mask id="mask0_319_106" style="mask-type:alpha" maskUnits="userSpaceOnUse" x="0" y="0" width="31" height="31">
<rect x="30.5843" y="29.9941" width="30" height="30" transform="rotate(178.873 30.5843 29.9941)" fill="#D9D9D9"/>
</mask>
<g mask="url(#mask0_319_106)">
<path d="M16.2961 2.77031L16.3698 6.51959L13.8703 6.56876L13.7965 2.81949L16.2961 2.77031ZM27.7652 13.7969L27.8143 16.2964L24.0651 16.3701L24.0159 13.8706L27.7652 13.7969ZM6.51929 14.2148L6.56846 16.7144L2.81919 16.7881L2.77001 14.2886L6.51929 14.2148ZM7.59939 5.56692L10.2755 8.13978L8.56028 9.92386L5.88415 7.351L7.59939 5.56692ZM22.5965 5.27187L24.3806 6.98711L21.8077 9.66323L20.0236 7.948L22.5965 5.27187ZM15.1692 9.04369C16.8981 9.00968 18.3837 9.58994 19.6262 10.7845C20.8687 11.979 21.507 13.4407 21.541 15.1695C21.5606 16.1694 21.3551 17.1059 20.9242 17.9791C20.4934 18.8523 19.8986 19.5985 19.1398 20.2178L19.2627 26.4665L11.7642 26.6141L11.6413 20.3653C10.8587 19.7764 10.235 19.0541 9.77015 18.1985C9.30531 17.3429 9.06306 16.4152 9.04339 15.4154C9.00938 13.6866 9.58964 12.2009 10.7842 10.9584C11.9787 9.71595 13.4404 9.07771 15.1692 9.04369ZM16.6624 21.3917C16.4549 21.4375 16.2473 21.4728 16.0394 21.4977C15.8315 21.5227 15.6234 21.5372 15.4151 21.5413C15.2068 21.5454 14.9983 21.5391 14.7896 21.5223C14.5809 21.5056 14.372 21.4784 14.1629 21.4409L14.2145 24.0654L16.714 24.0162L16.6624 21.3917ZM15.2184 11.5432C14.177 11.5637 13.2989 11.9456 12.5842 12.689C11.8695 13.4324 11.5224 14.3248 11.5429 15.3662C11.5634 16.4077 11.9453 17.2858 12.6887 18.0005C13.4321 18.7152 14.3245 19.0622 15.3659 19.0418C16.4074 19.0213 17.2855 18.6393 18.0002 17.896C18.7148 17.1526 19.0619 16.2602 19.0415 15.2187C19.021 14.1773 18.639 13.2992 17.8957 12.5845C17.1523 11.8698 16.2599 11.5227 15.2184 11.5432Z" fill="#042D0D"/>
</g>
</svg>
