<svg width="23" height="19" viewBox="0 0 23 19" fill="none" xmlns="http://www.w3.org/2000/svg">
<path d="M11.2775 11.5377C12.1081 11.5377 12.7814 10.9299 12.7814 10.1802C12.7814 9.43052 12.1081 8.82275 11.2775 8.82275C10.447 8.82275 9.77368 9.43052 9.77368 10.1802C9.77368 10.9299 10.447 11.5377 11.2775 11.5377Z" fill="#26993F"/>
<path d="M15.2879 6.56026H13.6988L13.0772 5.94939C12.8917 5.76387 12.621 5.65527 12.3403 5.65527H10.2148C9.93412 5.65527 9.66343 5.76387 9.47294 5.94939L8.85636 6.56026H7.26728C6.71587 6.56026 6.26471 6.9675 6.26471 7.46524V12.8951C6.26471 13.3929 6.71587 13.8001 7.26728 13.8001H15.2879C15.8393 13.8001 16.2904 13.3929 16.2904 12.8951V7.46524C16.2904 6.9675 15.8393 6.56026 15.2879 6.56026ZM11.2776 12.4426C9.89402 12.4426 8.77114 11.4291 8.77114 10.1802C8.77114 8.93131 9.89402 7.91773 11.2776 7.91773C12.6611 7.91773 13.784 8.93131 13.784 10.1802C13.784 11.4291 12.6611 12.4426 11.2776 12.4426Z" fill="#26993F"/>
<path d="M4.90086 6.66076L3.09541 7.59707C3.24853 6.04681 4.37851 4.46653 6.21724 3.51296C8.38877 2.3868 10.8842 2.46493 12.4909 3.54625L13.3728 3.08888C11.5209 1.67455 8.46148 1.52738 5.82403 2.89517C3.6941 3.99976 2.39361 5.81637 2.18464 7.60924L1.22521 6.10184L0.393209 6.53331L1.96605 9.00446L5.29406 7.27855L4.90086 6.66076Z" fill="#26993F"/>
<path d="M18.1279 13.0324L18.3743 13.6649L20.349 13.038C19.8437 14.4706 18.3948 15.7905 16.3837 16.429C14.0087 17.183 11.5861 16.7651 10.2566 15.5312L9.29205 15.8374C10.7868 17.4169 13.7455 17.9772 16.6301 17.0615C18.9597 16.3219 20.6373 14.8014 21.2423 13.1524L21.8436 14.6957L22.7535 14.4068L21.7678 11.8768L18.1279 13.0324Z" fill="#26993F"/>
</svg>
